<?xml version="1.0" encoding="UTF-8" standalone="no"?><svg xmlns="http://www.w3.org/2000/svg" xmlns:xlink="http://www.w3.org/1999/xlink" contentScriptType="application/ecmascript" contentStyleType="text/css" height="249px" preserveAspectRatio="none" style="width:452px;height:249px;background:#FFFFFF;" version="1.1" viewBox="0 0 452 249" width="452px" zoomAndPan="magnify"><defs><filter height="300%" id="fsn2ll5pvhtl7" width="300%" x="-1" y="-1"><feGaussianBlur result="blurOut" stdDeviation="2.0"/><feColorMatrix in="blurOut" result="blurOut2" type="matrix" values="0 0 0 0 0 0 0 0 0 0 0 0 0 0 0 0 0 0 .4 0"/><feOffset dx="4.0" dy="4.0" in="blurOut2" result="blurOut3"/><feBlend in="SourceGraphic" in2="blurOut3" mode="normal"/></filter></defs><g><!--MD5=[a2a6247c4220d285c6759f2fd5931a4f]
class Figure--><rect codeLine="24" fill="#FEFECE" filter="url(#fsn2ll5pvhtl7)" height="60.8047" id="Figure" style="stroke:#A80036;stroke-width:1.5;" width="165" x="123" y="7"/><ellipse cx="182.25" cy="23" fill="#A9DCDF" rx="11" ry="11" style="stroke:#A80036;stroke-width:1.0;"/><path d="M182.3594,18.2969 L181.2031,23.625 L183.5313,23.625 L182.3594,18.2969 Z M180.875,15.75 L183.8594,15.75 L187.2188,28.75 L184.7656,28.75 L184,25.75 L180.7188,25.75 L179.9688,28.75 L177.5313,28.75 L180.875,15.75 Z " fill="#000000"/><text fill="#000000" font-family="sans-serif" font-size="12" font-style="italic" lengthAdjust="spacing" textLength="38" x="202.75" y="27.1543">Figure</text><line style="stroke:#A80036;stroke-width:1.5;" x1="124" x2="287" y1="39" y2="39"/><line style="stroke:#A80036;stroke-width:1.5;" x1="124" x2="287" y1="47" y2="47"/><ellipse cx="134" cy="58" fill="#84BE84" rx="3" ry="3" style="stroke:#038048;stroke-width:1.0;"/><text fill="#000000" font-family="sans-serif" font-size="11" lengthAdjust="spacing" textLength="139" x="143" y="61.2104">draw(dc: DeviceContext)</text><!--MD5=[5655ee3e2a0d028d03fe20f829576392]
class Square--><rect codeLine="28" fill="#FEFECE" filter="url(#fsn2ll5pvhtl7)" height="60.8047" id="Square" style="stroke:#A80036;stroke-width:1.5;" width="165" x="7" y="151"/><ellipse cx="63.75" cy="167" fill="#ADD1B2" rx="11" ry="11" style="stroke:#A80036;stroke-width:1.0;"/><path d="M66.2188,172.875 Q65.6406,173.1875 65,173.3438 Q64.3594,173.5 63.6563,173.5 Q61.1563,173.5 59.8281,171.8281 Q58.5156,170.1563 58.5156,167 Q58.5156,163.8438 59.8281,162.1719 Q61.1563,160.5 63.6563,160.5 Q64.3594,160.5 65,160.6563 Q65.6563,160.8125 66.2188,161.125 L66.2188,163.9219 Q65.5938,163.3594 65,163.0938 Q64.4063,162.8125 63.7813,162.8125 Q62.4375,162.8125 61.75,163.875 Q61.0625,164.9375 61.0625,167 Q61.0625,169.0781 61.75,170.1406 Q62.4375,171.1875 63.7813,171.1875 Q64.4063,171.1875 65,170.9219 Q65.5938,170.6563 66.2188,170.0781 L66.2188,172.875 Z " fill="#000000"/><text fill="#000000" font-family="sans-serif" font-size="12" lengthAdjust="spacing" textLength="43" x="84.25" y="171.1543">Square</text><line style="stroke:#A80036;stroke-width:1.5;" x1="8" x2="171" y1="183" y2="183"/><line style="stroke:#A80036;stroke-width:1.5;" x1="8" x2="171" y1="191" y2="191"/><ellipse cx="18" cy="202" fill="#84BE84" rx="3" ry="3" style="stroke:#038048;stroke-width:1.0;"/><text fill="#000000" font-family="sans-serif" font-size="11" lengthAdjust="spacing" textLength="139" x="27" y="205.2104">draw(dc: DeviceContext)</text><!--MD5=[67243d39b5fc3485b8b934396300984d]
class CompositeFigure--><rect codeLine="32" fill="#FEFECE" filter="url(#fsn2ll5pvhtl7)" height="107.2188" id="CompositeFigure" style="stroke:#A80036;stroke-width:1.5;" width="231" x="207" y="128"/><ellipse cx="267.75" cy="144" fill="#ADD1B2" rx="11" ry="11" style="stroke:#A80036;stroke-width:1.0;"/><path d="M270.2188,149.875 Q269.6406,150.1875 269,150.3438 Q268.3594,150.5 267.6563,150.5 Q265.1563,150.5 263.8281,148.8281 Q262.5156,147.1563 262.5156,144 Q262.5156,140.8438 263.8281,139.1719 Q265.1563,137.5 267.6563,137.5 Q268.3594,137.5 269,137.6563 Q269.6563,137.8125 270.2188,138.125 L270.2188,140.9219 Q269.5938,140.3594 269,140.0938 Q268.4063,139.8125 267.7813,139.8125 Q266.4375,139.8125 265.75,140.875 Q265.0625,141.9375 265.0625,144 Q265.0625,146.0781 265.75,147.1406 Q266.4375,148.1875 267.7813,148.1875 Q268.4063,148.1875 269,147.9219 Q269.5938,147.6563 270.2188,147.0781 L270.2188,149.875 Z " fill="#000000"/><text fill="#000000" font-family="sans-serif" font-size="12" lengthAdjust="spacing" textLength="101" x="288.25" y="148.1543">CompositeFigure</text><line style="stroke:#A80036;stroke-width:1.5;" x1="208" x2="437" y1="160" y2="160"/><rect fill="none" height="6" style="stroke:#C82930;stroke-width:1.0;" width="6" x="215" y="168"/><text fill="#000000" font-family="sans-serif" font-size="11" lengthAdjust="spacing" textLength="119" x="227" y="174.2104">figures: List&lt;Figure&gt;</text><line style="stroke:#A80036;stroke-width:1.0;" x1="208" x2="437" y1="180.8047" y2="180.8047"/><ellipse cx="218" cy="191.8047" fill="#84BE84" rx="3" ry="3" style="stroke:#038048;stroke-width:1.0;"/><text fill="#000000" font-family="sans-serif" font-size="11" lengthAdjust="spacing" textLength="139" x="227" y="195.0151">draw(dc: DeviceContext)</text><line style="stroke:#A80036;stroke-width:1.0;" x1="208" x2="437" y1="201.6094" y2="201.6094"/><ellipse cx="218" cy="212.6094" fill="#84BE84" rx="3" ry="3" style="stroke:#038048;stroke-width:1.0;"/><text fill="#000000" font-family="sans-serif" font-size="11" lengthAdjust="spacing" textLength="205" x="227" y="215.8198">addFigure(f: Figure, x: long, y: long)</text><ellipse cx="218" cy="225.4141" fill="#84BE84" rx="3" ry="3" style="stroke:#038048;stroke-width:1.0;"/><text fill="#000000" font-family="sans-serif" font-size="11" lengthAdjust="spacing" textLength="134" x="227" y="228.6245">removeFigure(f: Figure)</text><!--MD5=[5c5634ce16133b21b91ad1b283e43e6f]
reverse link Figure to Square--><path d="M168.52,83.76 C150.62,105.68 129.63,131.37 113.79,150.77 " fill="none" id="Figure-backto-Square" style="stroke:#A80036;stroke-width:1.0;"/><polygon fill="none" points="163.11,79.33,181.18,68.27,173.95,88.19,163.11,79.33" style="stroke:#A80036;stroke-width:1.0;"/><!--MD5=[e3826dc89037655d9a81a0f331bb9a4b]
reverse link Figure to CompositeFigure--><path d="M242.85,83.84 C254.39,97.83 267.19,113.37 279.09,127.82 " fill="none" id="Figure-backto-CompositeFigure" style="stroke:#A80036;stroke-width:1.0;"/><polygon fill="none" points="237.34,88.15,230.03,68.27,248.15,79.25,237.34,88.15" style="stroke:#A80036;stroke-width:1.0;"/><!--MD5=[a9b626fe3be699ba202f91a2e0fe7639]
@startuml
'abstract class MenuItem {
'    + text(): String
'    + addClickHandler(handler: EventHandler)
'    + removeClickHandler(handler: EventHandler)
'}
'
'class Leaf extends MenuItem {
'    + text(): String
'    + addClickHandler(handler: EventHandler)
'    + removeClickHandler(handler: EventHandler)
'}
'
'class Popup extends MenuItem {
'    - children: List<MenuItem>
'    - - -
'    + text(): String
'    + addClickHandler(handler: EventHandler)
'    + removeClickHandler(handler: EventHandler)
'    - - -
'    + addChild(child: MenuItem)
'    + removeChild(child: MenuItem)
'}

abstract class Figure {
    + draw(dc: DeviceContext)
}

class Square extends Figure {
    + draw(dc: DeviceContext)
}

class CompositeFigure extends Figure {
    - figures: List<Figure>
    - - -
    + draw(dc: DeviceContext)
    - - -
    + addFigure(f: Figure, x: long, y: long)
    + removeFigure(f: Figure)
}
@enduml

@startuml

abstract class Figure {
    + draw(dc: DeviceContext)
}

class Square extends Figure {
    + draw(dc: DeviceContext)
}

class CompositeFigure extends Figure {
    - figures: List<Figure>
    - - -
    + draw(dc: DeviceContext)
    - - -
    + addFigure(f: Figure, x: long, y: long)
    + removeFigure(f: Figure)
}
@enduml

PlantUML version 1.2022.1(Tue Feb 01 21:19:58 MSK 2022)
(GPL source distribution)
Java Runtime: OpenJDK Runtime Environment
JVM: OpenJDK 64-Bit Server VM
Default Encoding: UTF-8
Language: en
Country: US
--></g></svg>