<?xml version="1.0" encoding="UTF-8" standalone="no"?><svg xmlns="http://www.w3.org/2000/svg" xmlns:xlink="http://www.w3.org/1999/xlink" contentScriptType="application/ecmascript" contentStyleType="text/css" height="299px" preserveAspectRatio="none" style="width:606px;height:299px;background:#FFFFFF;" version="1.1" viewBox="0 0 606 299" width="606px" zoomAndPan="magnify"><defs><filter height="300%" id="f11fy7cp7hr6rn" width="300%" x="-1" y="-1"><feGaussianBlur result="blurOut" stdDeviation="2.0"/><feColorMatrix in="blurOut" result="blurOut2" type="matrix" values="0 0 0 0 0 0 0 0 0 0 0 0 0 0 0 0 0 0 .4 0"/><feOffset dx="4.0" dy="4.0" in="blurOut2" result="blurOut3"/><feBlend in="SourceGraphic" in2="blurOut3" mode="normal"/></filter></defs><g><!--MD5=[27eb0c30e65d8b262e52e99e862b6c6e]
class MenuItem--><rect codeLine="1" fill="#FEFECE" filter="url(#f11fy7cp7hr6rn)" height="86.4141" id="MenuItem" style="stroke:#A80036;stroke-width:1.5;" width="275" x="162" y="7"/><ellipse cx="264.75" cy="23" fill="#A9DCDF" rx="11" ry="11" style="stroke:#A80036;stroke-width:1.0;"/><path d="M264.8594,18.2969 L263.7031,23.625 L266.0313,23.625 L264.8594,18.2969 Z M263.375,15.75 L266.3594,15.75 L269.7188,28.75 L267.2656,28.75 L266.5,25.75 L263.2188,25.75 L262.4688,28.75 L260.0313,28.75 L263.375,15.75 Z " fill="#000000"/><text fill="#000000" font-family="sans-serif" font-size="12" font-style="italic" lengthAdjust="spacing" textLength="61" x="285.25" y="27.1543">MenuItem</text><line style="stroke:#A80036;stroke-width:1.5;" x1="163" x2="436" y1="39" y2="39"/><line style="stroke:#A80036;stroke-width:1.5;" x1="163" x2="436" y1="47" y2="47"/><ellipse cx="173" cy="58" fill="#84BE84" rx="3" ry="3" style="stroke:#038048;stroke-width:1.0;"/><text fill="#000000" font-family="sans-serif" font-size="11" lengthAdjust="spacing" textLength="71" x="182" y="61.2104">text(): String</text><ellipse cx="173" cy="70.8047" fill="#84BE84" rx="3" ry="3" style="stroke:#038048;stroke-width:1.0;"/><text fill="#000000" font-family="sans-serif" font-size="11" lengthAdjust="spacing" textLength="226" x="182" y="74.0151">addClickHandler(handler: EventHandler)</text><ellipse cx="173" cy="83.6094" fill="#84BE84" rx="3" ry="3" style="stroke:#038048;stroke-width:1.0;"/><text fill="#000000" font-family="sans-serif" font-size="11" lengthAdjust="spacing" textLength="249" x="182" y="86.8198">removeClickHandler(handler: EventHandler)</text><!--MD5=[3670a9b67b8a752f6e42da25dea7e2da]
class Leaf--><rect codeLine="7" fill="#FEFECE" filter="url(#f11fy7cp7hr6rn)" height="86.4141" id="Leaf" style="stroke:#A80036;stroke-width:1.5;" width="275" x="7" y="176.5"/><ellipse cx="127.75" cy="192.5" fill="#ADD1B2" rx="11" ry="11" style="stroke:#A80036;stroke-width:1.0;"/><path d="M130.2188,198.375 Q129.6406,198.6875 129,198.8438 Q128.3594,199 127.6563,199 Q125.1563,199 123.8281,197.3281 Q122.5156,195.6563 122.5156,192.5 Q122.5156,189.3438 123.8281,187.6719 Q125.1563,186 127.6563,186 Q128.3594,186 129,186.1563 Q129.6563,186.3125 130.2188,186.625 L130.2188,189.4219 Q129.5938,188.8594 129,188.5938 Q128.4063,188.3125 127.7813,188.3125 Q126.4375,188.3125 125.75,189.375 Q125.0625,190.4375 125.0625,192.5 Q125.0625,194.5781 125.75,195.6406 Q126.4375,196.6875 127.7813,196.6875 Q128.4063,196.6875 129,196.4219 Q129.5938,196.1563 130.2188,195.5781 L130.2188,198.375 Z " fill="#000000"/><text fill="#000000" font-family="sans-serif" font-size="12" lengthAdjust="spacing" textLength="25" x="148.25" y="196.6543">Leaf</text><line style="stroke:#A80036;stroke-width:1.5;" x1="8" x2="281" y1="208.5" y2="208.5"/><line style="stroke:#A80036;stroke-width:1.5;" x1="8" x2="281" y1="216.5" y2="216.5"/><ellipse cx="18" cy="227.5" fill="#84BE84" rx="3" ry="3" style="stroke:#038048;stroke-width:1.0;"/><text fill="#000000" font-family="sans-serif" font-size="11" lengthAdjust="spacing" textLength="71" x="27" y="230.7104">text(): String</text><ellipse cx="18" cy="240.3047" fill="#84BE84" rx="3" ry="3" style="stroke:#038048;stroke-width:1.0;"/><text fill="#000000" font-family="sans-serif" font-size="11" lengthAdjust="spacing" textLength="226" x="27" y="243.5151">addClickHandler(handler: EventHandler)</text><ellipse cx="18" cy="253.1094" fill="#84BE84" rx="3" ry="3" style="stroke:#038048;stroke-width:1.0;"/><text fill="#000000" font-family="sans-serif" font-size="11" lengthAdjust="spacing" textLength="249" x="27" y="256.3198">removeClickHandler(handler: EventHandler)</text><!--MD5=[b7e3828a92f8e3e535806123e72a16b0]
class Popup--><rect codeLine="13" fill="#FEFECE" filter="url(#f11fy7cp7hr6rn)" height="132.8281" id="Popup" style="stroke:#A80036;stroke-width:1.5;" width="275" x="317" y="153"/><ellipse cx="431.25" cy="169" fill="#ADD1B2" rx="11" ry="11" style="stroke:#A80036;stroke-width:1.0;"/><path d="M433.7188,174.875 Q433.1406,175.1875 432.5,175.3438 Q431.8594,175.5 431.1563,175.5 Q428.6563,175.5 427.3281,173.8281 Q426.0156,172.1563 426.0156,169 Q426.0156,165.8438 427.3281,164.1719 Q428.6563,162.5 431.1563,162.5 Q431.8594,162.5 432.5,162.6563 Q433.1563,162.8125 433.7188,163.125 L433.7188,165.9219 Q433.0938,165.3594 432.5,165.0938 Q431.9063,164.8125 431.2813,164.8125 Q429.9375,164.8125 429.25,165.875 Q428.5625,166.9375 428.5625,169 Q428.5625,171.0781 429.25,172.1406 Q429.9375,173.1875 431.2813,173.1875 Q431.9063,173.1875 432.5,172.9219 Q433.0938,172.6563 433.7188,172.0781 L433.7188,174.875 Z " fill="#000000"/><text fill="#000000" font-family="sans-serif" font-size="12" lengthAdjust="spacing" textLength="38" x="451.75" y="173.1543">Popup</text><line style="stroke:#A80036;stroke-width:1.5;" x1="318" x2="591" y1="185" y2="185"/><rect fill="none" height="6" style="stroke:#C82930;stroke-width:1.0;" width="6" x="325" y="193"/><text fill="#000000" font-family="sans-serif" font-size="11" lengthAdjust="spacing" textLength="145" x="337" y="199.2104">children: List&lt;MenuItem&gt;</text><line style="stroke:#A80036;stroke-width:1.0;" x1="318" x2="591" y1="205.8047" y2="205.8047"/><ellipse cx="328" cy="216.8047" fill="#84BE84" rx="3" ry="3" style="stroke:#038048;stroke-width:1.0;"/><text fill="#000000" font-family="sans-serif" font-size="11" lengthAdjust="spacing" textLength="71" x="337" y="220.0151">text(): String</text><ellipse cx="328" cy="229.6094" fill="#84BE84" rx="3" ry="3" style="stroke:#038048;stroke-width:1.0;"/><text fill="#000000" font-family="sans-serif" font-size="11" lengthAdjust="spacing" textLength="226" x="337" y="232.8198">addClickHandler(handler: EventHandler)</text><ellipse cx="328" cy="242.4141" fill="#84BE84" rx="3" ry="3" style="stroke:#038048;stroke-width:1.0;"/><text fill="#000000" font-family="sans-serif" font-size="11" lengthAdjust="spacing" textLength="249" x="337" y="245.6245">removeClickHandler(handler: EventHandler)</text><line style="stroke:#A80036;stroke-width:1.0;" x1="318" x2="591" y1="252.2188" y2="252.2188"/><ellipse cx="328" cy="263.2188" fill="#84BE84" rx="3" ry="3" style="stroke:#038048;stroke-width:1.0;"/><text fill="#000000" font-family="sans-serif" font-size="11" lengthAdjust="spacing" textLength="146" x="337" y="266.4292">addChild(child: MenuItem)</text><ellipse cx="328" cy="276.0234" fill="#84BE84" rx="3" ry="3" style="stroke:#038048;stroke-width:1.0;"/><text fill="#000000" font-family="sans-serif" font-size="11" lengthAdjust="spacing" textLength="169" x="337" y="279.2339">removeChild(child: MenuItem)</text><!--MD5=[e2788a35251f200faf3a1925564969b7]
reverse link MenuItem to Leaf--><path d="M246.59,108.18 C225.94,130.49 202.69,155.62 183.6,176.25 " fill="none" id="MenuItem-backto-Leaf" style="stroke:#A80036;stroke-width:1.0;"/><polygon fill="none" points="241.67,103.19,260.39,93.27,251.94,112.7,241.67,103.19" style="stroke:#A80036;stroke-width:1.0;"/><!--MD5=[65b1dccb12503a1d50e7b936671550e2]
reverse link MenuItem to Popup--><path d="M352.49,108.27 C365.75,122.59 380.07,138.07 393.67,152.77 " fill="none" id="MenuItem-backto-Popup" style="stroke:#A80036;stroke-width:1.0;"/><polygon fill="none" points="347.06,112.7,338.61,93.27,357.33,103.19,347.06,112.7" style="stroke:#A80036;stroke-width:1.0;"/><!--MD5=[edcbfb53043965283b3f1f3482b2cc41]
@startuml
abstract class MenuItem {
    + text(): String
    + addClickHandler(handler: EventHandler)
    + removeClickHandler(handler: EventHandler)
}

class Leaf extends MenuItem {
    + text(): String
    + addClickHandler(handler: EventHandler)
    + removeClickHandler(handler: EventHandler)
}

class Popup extends MenuItem {
    - children: List<MenuItem>
    - - -
    + text(): String
    + addClickHandler(handler: EventHandler)
    + removeClickHandler(handler: EventHandler)
    - - -
    + addChild(child: MenuItem)
    + removeChild(child: MenuItem)
}

'abstract class Figure {
'    + draw(dc: DeviceContext)
'}
'
'class Square extends Figure {
'    + draw(dc: DeviceContext)
'}
'
'class CompositeFigure extends Figure {
'    - figures: List<Figure>
'    - - -
'    + draw(dc: DeviceContext)
'    - - -
'    + addFigure(f: Figure, x: long, y: long)
'    + removeFigure(f: Figure)
'}
@enduml

@startuml
abstract class MenuItem {
    + text(): String
    + addClickHandler(handler: EventHandler)
    + removeClickHandler(handler: EventHandler)
}

class Leaf extends MenuItem {
    + text(): String
    + addClickHandler(handler: EventHandler)
    + removeClickHandler(handler: EventHandler)
}

class Popup extends MenuItem {
    - children: List<MenuItem>
    - - -
    + text(): String
    + addClickHandler(handler: EventHandler)
    + removeClickHandler(handler: EventHandler)
    - - -
    + addChild(child: MenuItem)
    + removeChild(child: MenuItem)
}

@enduml

PlantUML version 1.2022.1(Tue Feb 01 21:19:58 MSK 2022)
(GPL source distribution)
Java Runtime: OpenJDK Runtime Environment
JVM: OpenJDK 64-Bit Server VM
Default Encoding: UTF-8
Language: en
Country: US
--></g></svg>